# xmcd CD database file
# Copyright (C) 1997 Ti Kan
#
# Track frame offsets:
#  182
#  12032
#  21480
#  33257
#  45180
#  59430
#  74130
#  87407
#  100682
#  114782
#  126480
#  136680
#  146880
#  160827
#  176657
#  189707
#  207105
#  216482
#  230807
#  243482
#  255855
#
# Disc length: 3566 seconds
#
# Revision: 1
# Processed by: cddbd v1.4b41PL1 Copyright (c) Steve Scherf et al.
# Submitted via: CDWizzard Release:4.32
#
DISCID=2e0dec15
DTITLE=Ford, Tennessee Ernie - The Best of Tennessee Ernie Ford
DYEAR=1900
DGENRE=
TTITLE0=Sixteen Tons
TTITLE1=Tennessee Waltz
TTITLE2=Red Roses for a Blue Lady
TTITLE3=Make the World Go Away
TTITLE4=Mister and Mississippi
TTITLE5=Born to Lose
TTITLE6=John Henry
TTITLE7=Release Me
TTITLE8=Detroit City
TTITLE9=There Goes My Everything
TTITLE10=The Rovin' Gambler
TTITLE11=Long, Long Ago
TTITLE12=Mule Train
TTITLE13=Silver Threads Among the Gold
TTITLE14=Freight Train Blues
TTITLE15=Green, Green Grass of Home
TTITLE16=None Pound Hammer
TTITLE17=Who Will Shoe Your Pretty Little Foot
TTITLE18=That's All
TTITLE19=I Can't Stop Loving You
TTITLE20=Shot Gun Boogie
EXTD=
EXTT0=
EXTT1=
EXTT2=
EXTT3=
EXTT4=
EXTT5=
EXTT6=
EXTT7=
EXTT8=
EXTT9=
EXTT10=
EXTT11=
EXTT12=
EXTT13=
EXTT14=
EXTT15=
EXTT16=
EXTT17=
EXTT18=
EXTT19=
EXTT20=
PLAYORDER=
